<svg class="oui-message__icon oui-message__icon_error" xmlns="http://www.w3.org/2000/svg" viewBox="0 0 64 64">
  <circle class="oui-message__icon_circle" cx="32" cy="32" r="32"/>
  <path class="oui-message__icon_x" d="M17.92 24l6.24 6.24L25.89 32l-1.73 1.73L17.92 40a2.45 2.45 0 0 0 0 3.45l1.33 1.33 1.33 1.33a2.45 2.45 0 0 0 3.45 0l8-8 1.73 1.73L40 46.08a2.45 2.45 0 0 0 3.45 0l1.33-1.33 1.33-1.33a2.45 2.45 0 0 0 0-3.45l-8-8 8-8a2.45 2.45 0 0 0 0-3.45l-2.66-2.66a2.45 2.45 0 0 0-3.45 0l-6.24 6.24L32 25.89l-8-8a2.45 2.45 0 0 0-3.45 0l-2.66 2.66a2.45 2.45 0 0 0 .03 3.45z"/>
</svg>
